<svg width="1600" height="900" viewBox="0 0 1600 900" fill="none" xmlns="http://www.w3.org/2000/svg">
  <rect width="1600" height="900" fill="#F7E8D9"/>
  <rect y="540" width="1600" height="360" fill="#E8B16A"/>
  <path d="M0 615C131 564 238 536 364 533C484 530 602 572 707 566C816 560 872 501 988 470C1135 431 1314 448 1600 551V900H0V615Z" fill="#D97845"/>
  <path d="M0 700C126 668 261 641 371 642C493 643 611 684 730 680C816 677 902 642 1018 624C1159 603 1342 618 1600 695V900H0V700Z" fill="#B94A32"/>
  <path d="M272 502C272 432.412 328.412 376 398 376H408C477.588 376 534 432.412 534 502V542H272V502Z" fill="#C66039"/>
  <path d="M1052 392C1052 322.412 1108.41 266 1178 266H1188C1257.59 266 1314 322.412 1314 392V542H1052V392Z" fill="#D0693D"/>
  <circle cx="1180" cy="194" r="84" fill="#F0B15A"/>
  <path d="M612 356L655 268L697 356H612Z" fill="#C66039"/>
  <path d="M612 356H697V542H612V356Z" fill="#A5462E"/>
  <path d="M733 542C770 476 847 442 915 451C977 460 1036 509 1054 542H733Z" fill="#8F3728"/>
  <rect x="1172" y="350" width="22" height="192" fill="#A5462E"/>
  <rect x="384" y="450" width="18" height="92" fill="#8F3728"/>
</svg>
